<?xml version="1.0" encoding="utf-8"?>
<!-- Generator: Adobe Illustrator 16.0.0, SVG Export Plug-In . SVG Version: 6.00 Build 0)  -->
<!DOCTYPE svg PUBLIC "-//W3C//DTD SVG 1.1//EN" "http://www.w3.org/Graphics/SVG/1.1/DTD/svg11.dtd">
<svg version="1.1" id="katman_1" xmlns="http://www.w3.org/2000/svg" xmlns:xlink="http://www.w3.org/1999/xlink" x="0px" y="0px"
	 width="200px" height="80px" viewBox="0 0 200 80" enable-background="new 0 0 200 80" xml:space="preserve">
<g>
	<path fill="#E5E5E5" d="M61.014,32.129v9.316c0,1.861-0.497,3.684-1.449,5.257l-5.672,9.964c-0.538,0.911-0.869,1.945-0.869,3.021
		L52.9,64.905c-0.125,5.588-4.762,10.143-10.35,10.143h-8.612c-5.589,0-10.226-4.555-10.35-10.143l-0.125-5.175
		c0-1.078-0.29-2.112-0.828-3.022l-5.713-10.006c-0.952-1.573-1.449-3.396-1.449-5.216v-9.357l6.209-6.209h33.121L61.014,32.129z"/>
	<path fill="#D9D9D9" d="M61.014,32.129v9.316c0,1.861-0.497,3.684-1.449,5.257l-5.672,9.964c-0.538,0.911-0.869,1.945-0.869,3.021
		L52.9,64.905c-0.125,5.588-4.762,10.143-10.35,10.143h-4.306V25.92h16.561L61.014,32.129z"/>
	<g>
		<path fill="#787780" d="M44.454,60.559c0,3.438-2.775,6.209-6.21,6.209s-6.21-2.771-6.21-6.209c0-1.16,0.911-2.068,2.071-2.068
			s2.07,0.908,2.07,2.068c0,1.158,0.91,2.069,2.07,2.069c1.16,0,2.071-0.911,2.071-2.069c0-1.16,0.91-2.068,2.069-2.068
			C43.543,58.488,44.454,59.398,44.454,60.559z"/>
		<circle fill="#787780" cx="29.963" cy="43.721" r="2.07"/>
	</g>
	<circle fill="#57555C" cx="46.523" cy="43.721" r="2.07"/>
	<path fill="#787780" d="M40.313,64.697v8.281c0,1.156-0.91,2.067-2.07,2.067c-1.16,0-2.07-0.911-2.07-2.067v-8.281
		c0-1.159,0.91-2.069,2.07-2.069C39.403,62.628,40.313,63.538,40.313,64.697z"/>
	<path fill="#D9D9D9" d="M24.751,25.338l-5.579-5.275c-0.717-0.89-2.015-1.038-2.911-0.324l-12.57,9.946
		c-0.53,0.424-0.816,1.079-0.772,1.755c0.046,0.676,0.42,1.288,1.001,1.636c2.547,1.529,5.482,2.258,8.248,2.258
		c5.133,0,10.144-2.518,13.176-7.127C25.972,27.25,25.706,25.966,24.751,25.338z"/>
	<path fill="#C8C6CD" d="M72.795,29.685l-12.57-9.946c-0.893-0.711-2.193-0.563-2.911,0.324l-5.579,5.275
		c-0.955,0.629-1.22,1.912-0.593,2.869c3.033,4.609,8.043,7.127,13.176,7.127c2.764,0,5.703-0.731,8.249-2.258
		c0.58-0.348,0.954-0.96,1-1.636C73.613,30.764,73.326,30.109,72.795,29.685z"/>
	<path fill="#FEDBAB" d="M51.658,12.754c-1.284-2.277-3.602-3.85-6.251-4.181c-1.449-2.525-4.182-4.182-7.163-4.182
		c-2.98,0-5.713,1.656-7.162,4.182c-2.649,0.331-4.968,1.904-6.251,4.181c-4.886-0.704-9.356,3.271-9.356,8.197
		c0,4.927,4.471,8.86,9.356,8.197c1.284,2.277,3.602,3.85,6.251,4.182c1.449,2.525,4.182,4.182,7.162,4.182
		c2.981,0,5.714-1.656,7.163-4.182c2.649-0.332,4.968-1.905,6.251-4.182c4.884,0.704,9.355-3.271,9.355-8.197
		C61.014,16.025,56.501,12.05,51.658,12.754z"/>
	<path fill="#57555C" d="M44.454,60.559c0,3.438-2.775,6.209-6.21,6.209v-4.14c1.16,0,2.07-0.911,2.07-2.069
		c0-1.16,0.91-2.069,2.07-2.069C43.544,58.488,44.454,59.398,44.454,60.559z"/>
	<path fill="#FEC478" d="M61.014,20.951c0,4.927-4.471,8.901-9.355,8.197c-1.284,2.277-3.602,3.85-6.251,4.182
		c-1.449,2.525-4.182,4.182-7.163,4.182V4.392c2.981,0,5.714,1.655,7.163,4.181c2.649,0.332,4.968,1.905,6.251,4.182
		C56.501,12.05,61.014,16.024,61.014,20.951z"/>
	<path fill="#57555C" d="M40.313,64.697v8.281c0,1.156-0.91,2.067-2.07,2.067v-12.42C39.403,62.628,40.313,63.538,40.313,64.697z"/>
</g>
<g enable-background="new    ">
	<path fill="#FEC478" d="M90.765,31.967l-1.296,2.44v8.198h-4.194V15.913h4.194v11.63l5.567-11.63h4.118L93.32,27.811l5.834,14.794
		h-4.309L90.765,31.967z"/>
	<path fill="#FEC478" d="M100.453,22.319c0-4.271,2.25-6.711,6.367-6.711c4.119,0,6.369,2.44,6.369,6.711v13.88
		c0,4.271-2.25,6.711-6.369,6.711c-4.117,0-6.367-2.44-6.367-6.711V22.319z M104.646,36.466c0,1.907,0.84,2.632,2.174,2.632
		s2.174-0.725,2.174-2.632V22.053c0-1.907-0.839-2.631-2.174-2.631c-1.334,0-2.174,0.724-2.174,2.631V36.466z"/>
	<path fill="#FEC478" d="M119.254,33.759l-5.301-17.846h4.385l3.203,12.164l3.203-12.164h4.004l-5.3,17.846v8.847h-4.194V33.759z"/>
	<path fill="#FEC478" d="M134.432,15.913v20.591c0,1.907,0.84,2.594,2.174,2.594s2.174-0.687,2.174-2.594V15.913h3.966v20.324
		c0,4.271-2.136,6.711-6.253,6.711c-4.118,0-6.254-2.44-6.254-6.711V15.913H134.432z"/>
	<path fill="#FEC478" d="M149.344,23.272v19.333h-3.775V15.913h5.264l4.309,15.978V15.913h3.737v26.692h-4.31L149.344,23.272z"/>
	<path fill="#FEC478" d="M174.055,32.653v3.546c0,4.271-2.136,6.711-6.254,6.711c-4.117,0-6.254-2.44-6.254-6.711v-13.88
		c0-4.271,2.137-6.711,6.254-6.711c4.118,0,6.254,2.44,6.254,6.711v2.593h-3.966v-2.859c0-1.907-0.839-2.631-2.173-2.631
		c-1.336,0-2.174,0.724-2.174,2.631v14.413c0,1.907,0.838,2.594,2.174,2.594c1.334,0,2.173-0.687,2.173-2.594v-3.813H174.055z"/>
	<path fill="#FEC478" d="M180.615,15.913v20.591c0,1.907,0.839,2.594,2.174,2.594c1.334,0,2.173-0.687,2.173-2.594V15.913h3.966
		v20.324c0,4.271-2.135,6.711-6.254,6.711c-4.117,0-6.254-2.44-6.254-6.711V15.913H180.615z"/>
</g>
<g enable-background="new    ">
	<path fill="#57555C" d="M86.799,57.479h3.072v2.032h-3.072v4.171h3.865v2.033h-6.102V51.477h6.102v2.034h-3.865V57.479z"/>
	<path fill="#57555C" d="M95.423,63.091l1.708-11.614h2.055l-2.197,14.238h-3.336l-2.197-14.238h2.258L95.423,63.091z"/>
	<path fill="#57555C" d="M102.766,51.477h6.914v2.034h-2.339v12.204h-2.237V53.511h-2.338V51.477z"/>
	<path fill="#57555C" d="M117.164,65.715h-2.258l-0.387-2.583h-2.746l-0.385,2.583h-2.056l2.276-14.238h3.275L117.164,65.715z
		 M112.059,61.199h2.156l-1.078-7.2L112.059,61.199z"/>
	<path fill="#57555C" d="M121.131,60.04l-0.691,1.302v4.373h-2.237V51.477h2.237v6.205l2.97-6.205h2.196l-3.111,6.348l3.111,7.892
		h-2.299L121.131,60.04z"/>
	<path fill="#57555C" d="M126.621,51.477h2.236v14.238h-2.236V51.477z M128.777,48.711v2.074h-2.074v-2.074H128.777z"/>
	<path fill="#57555C" d="M137.115,54.996v1.852c0,2.277-1.098,3.519-3.336,3.519h-1.057v5.35h-2.238V51.477h3.295
		C136.018,51.477,137.115,52.718,137.115,54.996z M132.723,53.511v4.82h1.059c0.712,0,1.099-0.325,1.099-1.342v-2.136
		c0-1.019-0.387-1.344-1.099-1.344L132.723,53.511L132.723,53.511z"/>
	<path fill="#57555C" d="M144.314,51.314c2.178,0,3.297,1.302,3.297,3.578v0.551h-2.116v-0.691c0-1.018-0.407-1.404-1.118-1.404
		c-0.713,0-1.119,0.387-1.119,1.404c0,2.93,4.373,3.479,4.373,7.546c0,2.278-1.139,3.58-3.336,3.58c-2.195,0-3.336-1.302-3.336-3.58
		V61.32h2.115v1.119c0,1.018,0.447,1.384,1.16,1.384c0.712,0,1.158-0.366,1.158-1.384c0-2.93-4.373-3.479-4.373-7.547
		C141.021,52.616,142.139,51.314,144.314,51.314z"/>
	<path fill="#57555C" d="M148.912,51.477h2.236v14.238h-2.236V51.477L148.912,51.477z M151.068,48.711v2.074h-2.075v-2.074H151.068z
		"/>
	<path fill="#57555C" d="M155.785,51.314c2.178,0,3.296,1.302,3.296,3.578v0.551h-2.116v-0.691c0-1.018-0.406-1.404-1.117-1.404
		c-0.713,0-1.119,0.387-1.119,1.404c0,2.93,4.373,3.479,4.373,7.546c0,2.278-1.139,3.58-3.336,3.58s-3.336-1.302-3.336-3.58V61.32
		h2.115v1.119c0,1.018,0.447,1.384,1.16,1.384c0.711,0,1.158-0.366,1.158-1.384c0-2.93-4.373-3.479-4.373-7.547
		C152.49,52.616,153.609,51.314,155.785,51.314z"/>
	<path fill="#57555C" d="M159.771,51.477h6.916v2.034h-2.34v12.204h-2.236V53.511h-2.34V51.477z"/>
	<path fill="#57555C" d="M169.939,57.479h3.071v2.032h-3.071v4.171h3.865v2.033h-6.103V51.477h6.103v2.034h-3.865V57.479z"/>
	<path fill="#57555C" d="M179.928,61.586l1.525-10.109h3.111v14.238h-2.115V55.504l-1.545,10.211h-2.116l-1.667-10.068v10.068
		h-1.953V51.477h3.111L179.928,61.586z"/>
	<path fill="#57555C" d="M186.189,51.477h2.237v14.238h-2.237V51.477z M188.348,48.711v2.074h-2.076v-2.074H188.348z"/>
</g>
</svg>
