<?xml version="1.0" encoding="utf-8"?>
<!-- Generator: Adobe Illustrator 16.0.0, SVG Export Plug-In . SVG Version: 6.00 Build 0)  -->
<!DOCTYPE svg PUBLIC "-//W3C//DTD SVG 1.1//EN" "http://www.w3.org/Graphics/SVG/1.1/DTD/svg11.dtd">
<svg version="1.1" id="katman_1" xmlns="http://www.w3.org/2000/svg" xmlns:xlink="http://www.w3.org/1999/xlink" x="0px" y="0px"
	 width="150px" height="55px" viewBox="0 0 150 55" enable-background="new 0 0 150 55" xml:space="preserve">
<g>
	<path fill="#E5E5E5" d="M45.435,21.972v7.14c0,1.427-0.38,2.825-1.111,4.03l-4.347,7.637c-0.413,0.699-0.666,1.491-0.666,2.316
		l-0.096,4c-0.095,4.283-3.65,7.774-7.933,7.774h-6.602c-4.284,0-7.838-3.491-7.934-7.774L16.65,43.13
		c0-0.826-0.222-1.62-0.634-2.315l-4.379-7.672c-0.729-1.205-1.11-2.604-1.11-3.999v-7.171l4.76-4.759h25.388L45.435,21.972z"/>
	<path fill="#D9D9D9" d="M45.435,21.972v7.14c0,1.427-0.38,2.825-1.111,4.03l-4.347,7.637c-0.413,0.699-0.666,1.491-0.666,2.316
		l-0.096,4c-0.095,4.283-3.65,7.774-7.933,7.774h-3.301V17.213h12.695L45.435,21.972z"/>
	<g>
		<path fill="#787881" d="M32.742,43.765c0,2.635-2.127,4.759-4.76,4.759c-2.633,0-4.76-2.124-4.76-4.759
			c0-0.89,0.699-1.586,1.588-1.586c0.889,0,1.587,0.696,1.587,1.586c0,0.888,0.697,1.585,1.586,1.585
			c0.89,0,1.588-0.697,1.588-1.585c0-0.89,0.697-1.586,1.586-1.586C32.042,42.178,32.742,42.875,32.742,43.765z"/>
		<circle fill="#787881" cx="21.633" cy="30.857" r="1.586"/>
	</g>
	<circle fill="#58565D" cx="34.327" cy="30.857" r="1.586"/>
	<path fill="#787881" d="M29.567,46.937v6.349c0,0.885-0.697,1.583-1.587,1.583c-0.889,0-1.586-0.698-1.586-1.583v-6.349
		c0-0.889,0.697-1.585,1.586-1.585C28.87,45.35,29.567,46.048,29.567,46.937z"/>
	<path fill="#D9D9D9" d="M17.638,16.767l-4.276-4.043c-0.549-0.683-1.544-0.795-2.231-0.248l-9.636,7.623
		c-0.406,0.326-0.625,0.828-0.592,1.346c0.035,0.518,0.322,0.988,0.767,1.254c1.953,1.172,4.202,1.731,6.322,1.731
		c3.935,0,7.776-1.93,10.1-5.463C18.575,18.232,18.37,17.248,17.638,16.767z"/>
	<path fill="#C9C7CE" d="M54.465,20.099l-9.636-7.623c-0.684-0.545-1.681-0.432-2.231,0.248l-4.276,4.043
		c-0.732,0.482-0.936,1.465-0.455,2.199c2.326,3.533,6.165,5.464,10.1,5.464c2.119,0,4.371-0.561,6.323-1.731
		c0.445-0.267,0.731-0.736,0.767-1.255C55.092,20.925,54.873,20.424,54.465,20.099z"/>
	<path fill="#FEDBAB" d="M38.264,7.121c-0.984-1.745-2.761-2.951-4.792-3.205C32.362,1.98,30.267,0.71,27.981,0.71
		c-2.284,0-4.379,1.269-5.49,3.206c-2.03,0.254-3.808,1.459-4.792,3.205c-3.745-0.54-7.171,2.507-7.171,6.283
		c0,3.777,3.427,6.792,7.171,6.283c0.984,1.745,2.761,2.951,4.792,3.206c1.111,1.935,3.206,3.207,5.49,3.207
		c2.285,0,4.38-1.27,5.491-3.207c2.03-0.255,3.808-1.46,4.792-3.206c3.743,0.54,7.17-2.507,7.17-6.283
		C45.435,9.629,41.976,6.581,38.264,7.121z"/>
	<path fill="#58565D" d="M32.742,43.765c0,2.635-2.127,4.759-4.76,4.759V45.35c0.89,0,1.586-0.697,1.586-1.585
		c0-0.89,0.698-1.586,1.587-1.586C32.043,42.178,32.742,42.875,32.742,43.765z"/>
	<path fill="#FBC479" d="M45.435,13.404c0,3.777-3.427,6.822-7.17,6.283c-0.984,1.745-2.761,2.951-4.792,3.206
		c-1.111,1.935-3.206,3.207-5.491,3.207V0.711c2.285,0,4.38,1.268,5.491,3.205c2.03,0.254,3.808,1.46,4.792,3.206
		C41.976,6.581,45.435,9.628,45.435,13.404z"/>
	<path fill="#58565D" d="M29.567,46.937v6.349c0,0.885-0.697,1.583-1.587,1.583v-9.52C28.87,45.35,29.567,46.048,29.567,46.937z"/>
</g>
<g enable-background="new    ">
	<path fill="#FBC479" d="M63.751,21.396l-1.021,1.922v6.457h-3.303V8.754h3.303v9.159l4.384-9.159h3.242l-4.593,9.37l4.593,11.651
		h-3.393L63.751,21.396z"/>
	<path fill="#FBC479" d="M71.381,13.799c0-3.363,1.771-5.285,5.014-5.285c3.244,0,5.016,1.921,5.016,5.285v10.93
		c0,3.363-1.771,5.285-5.016,5.285c-3.242,0-5.014-1.922-5.014-5.285V13.799z M74.684,24.94c0,1.502,0.661,2.072,1.711,2.072
		c1.05,0,1.711-0.57,1.711-2.072V13.589c0-1.501-0.659-2.071-1.711-2.071c-1.05,0-1.711,0.57-1.711,2.071V24.94z"/>
	<path fill="#FBC479" d="M86.187,22.808L82.012,8.754h3.453l2.522,9.58l2.522-9.58h3.153l-4.174,14.053v6.968h-3.303V22.808z"/>
	<path fill="#FBC479" d="M98.139,8.754V24.97c0,1.502,0.661,2.042,1.712,2.042s1.712-0.54,1.712-2.042V8.754h3.125V24.76
		c0,3.363-1.684,5.285-4.925,5.285c-3.242,0-4.925-1.922-4.925-5.285V8.754H98.139z"/>
	<path fill="#FBC479" d="M109.882,14.55v15.226h-2.973V8.754h4.146l3.396,12.582V8.754h2.941v21.021h-3.396L109.882,14.55z"/>
	<path fill="#FBC479" d="M129.341,21.937v2.792c0,3.363-1.681,5.285-4.924,5.285s-4.926-1.922-4.926-5.285v-10.93
		c0-3.363,1.683-5.285,4.926-5.285s4.924,1.921,4.924,5.285v2.042h-3.122v-2.252c0-1.501-0.66-2.071-1.711-2.071
		c-1.052,0-1.711,0.57-1.711,2.071V24.94c0,1.502,0.659,2.043,1.711,2.043c1.051,0,1.711-0.541,1.711-2.043v-3.003H129.341z"/>
	<path fill="#FBC479" d="M134.509,8.754V24.97c0,1.502,0.66,2.042,1.711,2.042s1.711-0.54,1.711-2.042V8.754h3.123V24.76
		c0,3.363-1.681,5.285-4.925,5.285c-3.242,0-4.924-1.922-4.924-5.285V8.754H134.509z"/>
</g>
<g enable-background="new    ">
	<path fill="#D9D9D9" d="M60.628,41.487h2.42v1.601h-2.42v3.283h3.044v1.603h-4.806V36.761h4.806v1.603h-3.044V41.487z"/>
	<path fill="#D9D9D9" d="M67.419,45.908l1.345-9.147h1.619l-1.729,11.213h-2.627l-1.729-11.213h1.778L67.419,45.908z"/>
	<path fill="#D9D9D9" d="M73.203,36.761h5.443v1.603h-1.841v9.61h-1.762v-9.61h-1.84V36.761z"/>
	<path fill="#D9D9D9" d="M84.54,47.974h-1.777l-0.306-2.034h-2.162l-0.303,2.034h-1.621l1.791-11.213h2.58L84.54,47.974z
		 M80.52,44.417h1.699l-0.849-5.671L80.52,44.417z"/>
	<path fill="#D9D9D9" d="M87.664,43.505l-0.544,1.024v3.444h-1.761V36.761h1.761v4.887l2.339-4.887h1.729l-2.449,5l2.449,6.216
		h-1.811L87.664,43.505z"/>
	<path fill="#D9D9D9" d="M91.988,36.761h1.761v11.213h-1.761V36.761z M93.687,34.583v1.633h-1.635v-1.633H93.687z"/>
	<path fill="#D9D9D9" d="M100.252,39.532v1.459c0,1.793-0.864,2.771-2.628,2.771h-0.831v4.214h-1.764V36.762h2.595
		C99.388,36.761,100.252,37.737,100.252,39.532z M96.793,38.363v3.795h0.835c0.561,0,0.865-0.257,0.865-1.057v-1.683
		c0-0.803-0.305-1.059-0.865-1.059L96.793,38.363L96.793,38.363z"/>
	<path fill="#D9D9D9" d="M105.921,36.634c1.717,0,2.596,1.024,2.596,2.818v0.432h-1.665v-0.543c0-0.801-0.321-1.107-0.881-1.107
		c-0.562,0-0.882,0.307-0.882,1.107c0,2.307,3.445,2.738,3.445,5.941c0,1.795-0.896,2.819-2.628,2.819
		c-1.729,0-2.627-1.024-2.627-2.819v-0.77h1.666v0.882c0,0.801,0.351,1.09,0.912,1.09c0.561,0,0.913-0.289,0.913-1.09
		c0-2.309-3.443-2.739-3.443-5.942C103.328,37.658,104.207,36.634,105.921,36.634z"/>
	<path fill="#D9D9D9" d="M109.542,36.761h1.761v11.213h-1.761V36.761L109.542,36.761z M111.241,34.583v1.633h-1.635v-1.633H111.241z
		"/>
	<path fill="#D9D9D9" d="M114.955,36.634c1.714,0,2.596,1.024,2.596,2.818v0.432h-1.667v-0.543c0-0.801-0.32-1.107-0.88-1.107
		c-0.562,0-0.881,0.307-0.881,1.107c0,2.307,3.443,2.738,3.443,5.941c0,1.795-0.897,2.819-2.628,2.819
		c-1.729,0-2.626-1.024-2.626-2.819v-0.77h1.666v0.882c0,0.801,0.353,1.09,0.913,1.09c0.56,0,0.913-0.289,0.913-1.09
		c0-2.309-3.445-2.739-3.445-5.942C112.359,37.658,113.24,36.634,114.955,36.634z"/>
	<path fill="#D9D9D9" d="M118.094,36.761h5.446v1.603h-1.843v9.61h-1.761v-9.61h-1.843V36.761z"/>
	<path fill="#D9D9D9" d="M126.101,41.487h2.418v1.601h-2.418v3.283h3.043v1.603h-4.807V36.761h4.807v1.603h-3.043V41.487z"/>
	<path fill="#D9D9D9" d="M133.967,44.721l1.202-7.96h2.449v11.213h-1.665v-8.041l-1.218,8.041h-1.666l-1.313-7.93v7.93h-1.538
		V36.761h2.451L133.967,44.721z"/>
	<path fill="#D9D9D9" d="M138.897,36.761h1.761v11.213h-1.761V36.761z M140.597,34.583v1.633h-1.634v-1.633H140.597z"/>
</g>
</svg>
