<?xml version="1.0" encoding="utf-8"?>
<!-- Generator: Adobe Illustrator 16.0.0, SVG Export Plug-In . SVG Version: 6.00 Build 0)  -->
<!DOCTYPE svg PUBLIC "-//W3C//DTD SVG 1.1//EN" "http://www.w3.org/Graphics/SVG/1.1/DTD/svg11.dtd">
<svg version="1.1" id="Capa_1" xmlns="http://www.w3.org/2000/svg" xmlns:xlink="http://www.w3.org/1999/xlink" x="0px" y="0px"
	 width="1000px" height="1000px" viewBox="0 0 1000 1000" enable-background="new 0 0 1000 1000" xml:space="preserve">
<g>
	<path fill="#E5E5E5" d="M806.908,397.701v125.554c0,25.109-6.696,49.662-19.529,70.865l-76.445,134.299
		c-7.255,12.274-11.721,26.225-11.721,40.732l-1.676,70.31c-1.672,75.33-64.171,136.715-139.505,136.715H441.964
		c-75.333,0-137.832-61.385-139.504-136.715l-1.676-69.753c0-14.508-3.906-28.458-11.16-40.733l-77.006-134.856
		c-12.833-21.205-19.529-45.758-19.529-70.31V397.701l83.702-83.702h446.415L806.908,397.701z"/>
	<path fill="#D9D9D9" d="M806.908,397.701v125.554c0,25.109-6.696,49.662-19.529,70.865l-76.445,134.299
		c-7.255,12.274-11.721,26.225-11.721,40.732l-1.676,70.31c-1.672,75.33-64.171,136.715-139.505,136.715h-58.033v-662.18h223.207
		L806.908,397.701z"/>
	<g>
		<path fill="#787780" d="M583.702,780.87c0,46.314-37.387,83.702-83.703,83.702c-46.316,0-83.702-37.39-83.702-83.702
			c0-15.626,12.275-27.9,27.901-27.9c15.627,0,27.901,12.274,27.901,27.9c0,15.623,12.275,27.901,27.901,27.901
			c15.627,0,27.901-12.278,27.901-27.901c0-15.626,12.275-27.9,27.901-27.9C571.431,752.97,583.702,765.244,583.702,780.87z"/>
		<circle fill="#787780" cx="388.39" cy="553.938" r="27.901"/>
	</g>
	<circle fill="#57555C" cx="611.598" cy="553.938" r="27.901"/>
	<path fill="#787780" d="M527.901,836.671v111.604c0,15.623-12.275,27.901-27.902,27.901c-15.626,0-27.901-12.278-27.901-27.901
		V836.671c0-15.626,12.275-27.901,27.901-27.901C515.626,808.771,527.901,821.046,527.901,836.671z"/>
	<path fill="#D9D9D9" d="M318.153,306.159l-75.201-71.113c-9.672-11.988-27.165-13.979-39.236-4.36L34.285,364.74
		c-7.137,5.722-11.006,14.55-10.407,23.677c0.627,9.102,5.667,17.356,13.487,22.044c34.332,20.599,73.899,30.435,111.176,30.435
		c69.178,0,136.725-33.95,177.596-96.071C334.583,331.936,331.014,314.633,318.153,306.159z"/>
	<path fill="#C8C6CD" d="M965.712,364.742L796.283,230.688c-12.044-9.59-29.563-7.574-39.234,4.36l-75.201,71.113
		c-12.861,8.475-16.431,25.775-7.983,38.664c40.871,62.123,108.413,96.071,177.595,96.071c37.247,0,76.87-9.864,111.176-30.435
		c7.82-4.688,12.86-12.942,13.487-22.044C976.72,379.292,972.851,370.464,965.712,364.742z"/>
	<path fill="#FEDBAB" d="M680.798,136.545c-17.299-30.691-48.548-51.896-84.26-56.357c-19.529-34.042-56.36-56.36-96.535-56.36
		c-40.176,0-77.006,22.319-96.535,56.36c-35.714,4.462-66.963,25.667-84.26,56.357c-65.847-9.484-126.111,44.085-126.111,110.489
		S253.365,366.45,319.208,357.52c17.299,30.691,48.548,51.896,84.26,56.36c19.529,34.04,56.36,56.36,96.535,56.36
		c40.177,0,77.006-22.323,96.535-56.36c35.714-4.466,66.963-25.671,84.26-56.36c65.846,9.485,126.11-44.082,126.11-110.485
		S746.085,127.061,680.798,136.545z"/>
	<path fill="#57555C" d="M583.702,780.87c0,46.314-37.387,83.702-83.703,83.702V808.77c15.627,0,27.902-12.278,27.902-27.901
		c0-15.626,12.274-27.901,27.9-27.901C571.429,752.967,583.702,765.244,583.702,780.87z"/>
	<path fill="#FEC478" d="M806.908,247.034c0,66.405-60.269,119.972-126.11,110.485c-17.299,30.691-48.548,51.896-84.26,56.36
		c-19.529,34.038-56.36,56.359-96.537,56.359V23.824c40.177,0,77.006,22.319,96.535,56.36c35.714,4.463,66.963,25.667,84.26,56.357
		C746.085,127.061,806.908,180.629,806.908,247.034z"/>
	<path fill="#57555C" d="M527.901,836.671v111.604c0,15.623-12.275,27.901-27.902,27.901V808.77
		C515.626,808.771,527.901,821.046,527.901,836.671z"/>
</g>
</svg>
