<?xml version="1.0" encoding="utf-8"?>
<!-- Generator: Adobe Illustrator 16.0.0, SVG Export Plug-In . SVG Version: 6.00 Build 0)  -->
<!DOCTYPE svg PUBLIC "-//W3C//DTD SVG 1.1//EN" "http://www.w3.org/Graphics/SVG/1.1/DTD/svg11.dtd">
<svg version="1.1" id="Capa_1" xmlns="http://www.w3.org/2000/svg" xmlns:xlink="http://www.w3.org/1999/xlink" x="0px" y="0px"
	 width="512px" height="512px" viewBox="0 0 512 512" enable-background="new 0 0 512 512" xml:space="preserve">
<path fill="#A7C44C" d="M512,256C512,114.846,397.154,0,256,0C114.846,0,0,114.846,0,256c0,74.557,32.061,141.759,83.093,188.584
	l-0.242,0.214l8.304,7c0.54,0.456,1.126,0.829,1.666,1.275c4.413,3.658,8.983,7.131,13.638,10.491
	c1.508,1.09,3.016,2.179,4.552,3.24c4.971,3.426,10.073,6.674,15.286,9.756c1.136,0.67,2.281,1.321,3.426,1.974
	c5.707,3.248,11.534,6.312,17.501,9.122c0.438,0.205,0.884,0.392,1.322,0.597c19.446,9.039,40.206,15.676,61.915,19.595
	c0.568,0.103,1.136,0.205,1.713,0.308c6.74,1.164,13.554,2.095,20.452,2.719c0.838,0.074,1.676,0.12,2.522,0.195
	C242.018,511.637,248.962,512,256,512c6.973,0,13.852-0.363,20.685-0.912c0.866-0.074,1.731-0.121,2.598-0.195
	c6.842-0.624,13.601-1.527,20.274-2.672c0.578-0.103,1.164-0.205,1.741-0.316c21.384-3.836,41.845-10.324,61.04-19.131
	c0.707-0.325,1.424-0.633,2.132-0.968c5.743-2.699,11.356-5.613,16.858-8.713c1.369-0.773,2.728-1.555,4.087-2.355
	c5.009-2.951,9.933-6.032,14.718-9.31c1.723-1.173,3.407-2.411,5.11-3.64c4.087-2.941,8.099-5.977,11.999-9.15
	c0.866-0.698,1.797-1.304,2.645-2.021l8.518-7.112l-0.251-0.214C479.632,398.447,512,330.938,512,256z M18.618,256
	C18.618,125.105,125.105,18.618,256,18.618c130.895,0,237.382,106.487,237.382,237.382c0,70.535-30.953,133.948-79.956,177.459
	c-2.736-1.89-5.492-3.584-8.313-4.999l-78.82-39.405c-7.074-3.537-11.469-10.649-11.469-18.553v-27.527
	c1.824-2.253,3.752-4.804,5.744-7.605c10.202-14.41,18.385-30.44,24.352-47.69c11.795-5.604,19.41-17.353,19.41-30.618v-33
	c0-8.071-2.961-15.9-8.258-22.053v-43.446c0.484-4.84,2.197-32.098-17.528-54.588c-17.157-19.586-44.926-29.5-82.544-29.5
	s-65.387,9.914-82.544,29.491c-19.726,22.491-18.013,49.767-17.529,54.588v43.446c-5.288,6.153-8.257,13.982-8.257,22.053v33
	c0,10.249,4.599,19.81,12.475,26.261c7.54,29.538,23.059,51.898,28.793,59.477v26.94c0,7.596-4.143,14.578-10.817,18.227
	l-73.607,40.15c-2.346,1.275-4.673,2.765-7,4.431C49.115,389.046,18.618,326.023,18.618,256z"/>
</svg>
