<?xml version="1.0" encoding="utf-8"?>
<!-- Generator: Adobe Illustrator 16.0.0, SVG Export Plug-In . SVG Version: 6.00 Build 0)  -->
<!DOCTYPE svg PUBLIC "-//W3C//DTD SVG 1.1//EN" "http://www.w3.org/Graphics/SVG/1.1/DTD/svg11.dtd">
<svg version="1.1" id="katman_1" xmlns="http://www.w3.org/2000/svg" xmlns:xlink="http://www.w3.org/1999/xlink" x="0px" y="0px"
	 width="318px" height="340px" viewBox="0 0 318 340" enable-background="new 0 0 318 340" xml:space="preserve">
<rect x="1" fill="#00AEA8" width="318" height="340"/>
<rect y="160.579" fill="#009245" width="318" height="180.421"/>
<path opacity="0.39" fill="#FFFFFF" enable-background="new    " d="M105.406,89.672c-0.042,0-0.083,0.005-0.125,0.006
	c-0.923-7.531-7.332-13.369-15.112-13.369c-0.939,0-1.853,0.098-2.745,0.26c0.099-0.699,0.168-1.408,0.168-2.135
	c0-8.416-6.822-15.237-15.239-15.237c-8.415,0-15.236,6.821-15.236,15.237c0,0.08,0.01,0.156,0.01,0.236
	c-0.843-0.145-1.705-0.236-2.59-0.236c-8.416,0-15.237,6.822-15.237,15.238c-4.661,0-8.439,3.777-8.439,8.439
	c0,4.661,3.778,8.439,8.439,8.439c3.021,0,63.645,0,66.107,0c4.661,0,8.44-3.778,8.44-8.439
	C113.846,93.449,110.067,89.672,105.406,89.672z"/>
<path fill="#FFFFFF" d="M225.066,63.004c-0.023,0-0.047,0.004-0.069,0.004c-0.519-4.219-4.106-7.489-8.468-7.489
	c-0.525,0-1.037,0.054-1.537,0.146c0.056-0.392,0.094-0.789,0.094-1.196c0-4.714-3.82-8.536-8.536-8.536
	c-4.715,0-8.536,3.822-8.536,8.536c0,0.045,0.006,0.088,0.006,0.132c-0.472-0.08-0.955-0.132-1.451-0.132
	c-4.715,0-8.534,3.821-8.534,8.536c-2.611,0-4.729,2.117-4.729,4.729c0,2.612,2.116,4.728,4.729,4.728c1.692,0,35.653,0,37.032,0
	c2.611,0,4.729-2.116,4.729-4.728C229.796,65.122,227.678,63.004,225.066,63.004z"/>
<path fill="#FFFFFF" d="M287.534,105.415c-0.031,0-0.063,0.004-0.093,0.004c-0.685-5.57-5.422-9.888-11.178-9.888
	c-0.695,0-1.371,0.071-2.031,0.192c0.074-0.518,0.125-1.042,0.125-1.58c0-6.224-5.047-11.27-11.271-11.27s-11.27,5.046-11.27,11.27
	c0,0.06,0.008,0.116,0.008,0.176c-0.623-0.107-1.262-0.176-1.916-0.176c-6.225,0-11.271,5.046-11.271,11.271
	c-3.447,0-6.24,2.794-6.24,6.242c0,3.447,2.793,6.241,6.24,6.241c2.236,0,47.073,0,48.896,0c3.447,0,6.242-2.794,6.242-6.241
	C293.777,108.208,290.98,105.415,287.534,105.415z"/>
<g>
	<g>
		<path fill="#0097A0" d="M258.283,220.754h-16.528c-1.275,0-2.309-1.033-2.309-2.306v-8.239c0-1.272,1.033-2.306,2.309-2.306
			h16.528c1.274,0,2.308,1.033,2.308,2.306v8.239C260.591,219.721,259.558,220.754,258.283,220.754z"/>
		<path fill="#0097A0" d="M252.332,208.753h-5.476c-1.275,0-2.309-1.033-2.309-2.309l1.699-11.637c0-1.274,1.034-2.308,2.309-2.308
			h2.079c1.272,0,2.306,1.033,2.306,2.308l1.7,11.637C254.641,207.72,253.609,208.753,252.332,208.753z"/>
		<path fill="#86DCEA" d="M257.803,225.382v-4.615h-15.568v4.615c0,2.366-1.916,4.284-4.282,4.284h-0.08
			c-2.019,0-3.653,1.635-3.653,3.651v31.632c0,2.018,1.637,3.651,3.653,3.651h24.294c2.018,0,3.653-1.635,3.653-3.651v-31.632
			c0-2.018-1.637-3.651-3.653-3.651h-0.079C259.721,229.664,257.803,227.748,257.803,225.382z"/>
		<rect x="248.451" y="237.513" fill="#FFFFFF" width="17.368" height="23.936"/>
	</g>
	<g>
		<path fill="#0097A0" d="M122.45,180.828H74.373c-2.287,0-4.142,1.855-4.142,4.143v17.416h56.361v-17.416
			C126.592,182.684,124.737,180.828,122.45,180.828z"/>
		<path fill="#5BC1DA" d="M126.404,202.387h-0.124H70.544h-0.124c-3.121,0-5.65,2.528-5.65,5.649v48.927
			c0,3.119,2.529,5.65,5.65,5.65h55.983c3.12,0,5.649-2.529,5.649-5.65v-48.927C132.053,204.917,129.523,202.387,126.404,202.387z"
			/>
		<rect x="89.414" y="218.47" fill="#FFFFFF" width="42.64" height="29.133"/>
		<g>
			<rect x="81.78" y="180.828" fill="#5BC1DA" width="2.63" height="21.559"/>
		</g>
		<g>
			<rect x="97.096" y="180.828" fill="#5BC1DA" width="2.63" height="21.559"/>
		</g>
		<g>
			<rect x="110.894" y="180.828" fill="#5BC1DA" width="2.629" height="21.559"/>
		</g>
	</g>
	<g>
		<rect x="185.936" y="164.773" fill="#5BC1DA" width="48.674" height="103.106"/>
		<rect x="206.043" y="190.713" fill="#FFFFFF" width="28.566" height="48.056"/>
		<path fill="#0097A0" d="M231.182,138.118v-5.973c0-1.046-0.847-1.892-1.893-1.892h-38.034c-1.045,0-1.893,0.848-1.893,1.892v5.973
			c0,1.046-0.848,1.893-1.893,1.893h-5.547c-1.045,0-1.892,0.848-1.892,1.894v20.975c0,1.048,0.848,1.893,1.892,1.893h56.699
			c1.045,0,1.892-0.846,1.892-1.893v-20.975c0-1.047-0.848-1.894-1.892-1.894h-5.547
			C232.029,140.01,231.182,139.162,231.182,138.118z"/>
	</g>
	<g>
		<path fill="#0097A0" d="M181.428,193.196h-53.749c-2.558,0-4.631-2.074-4.631-4.632v-16.532c0-2.558,2.073-4.629,4.631-4.629
			h53.749c2.558,0,4.63,2.071,4.63,4.629v16.532C186.058,191.122,183.985,193.196,181.428,193.196z"/>
		<path fill="#86DCEA" d="M178.303,201.175v-7.979h-47.499v7.979c0,4.089-3.315,7.406-7.405,7.406h-0.139
			c-3.488,0-6.317,2.827-6.317,6.315v54.697c0,3.488,2.829,6.316,6.317,6.316h62.589c3.486,0,6.316-2.828,6.316-6.316v-54.697
			c0-3.488-2.83-6.315-6.316-6.315h-0.141C181.617,208.581,178.303,205.264,178.303,201.175z"/>
		<rect x="141.553" y="222.15" fill="#FFFFFF" width="50.612" height="41.392"/>
	</g>
	<g>
		<path fill="#FAC612" d="M65.354,254.615v4.169c0,2.501,2.028,4.529,4.53,4.529h0.091c2.502,0,4.531-2.028,4.531-4.529v-4.169
			H65.354z"/>
		<path fill="#EC693A" d="M74.506,254.615v-4.171c0-2.502-2.028-4.53-4.531-4.53h-0.091c-2.501,0-4.53,2.028-4.53,4.53v4.171H74.506
			z"/>
		<g>
			<path fill="#FFFFFF" d="M67.01,251.409c-0.354,0-0.641-0.287-0.641-0.643c0-2.114,1.72-3.836,3.835-3.836
				c0.354,0,0.641,0.287,0.641,0.643c0,0.354-0.287,0.641-0.641,0.641c-1.408,0-2.552,1.146-2.552,2.553
				C67.652,251.122,67.365,251.409,67.01,251.409z"/>
		</g>
	</g>
	<g>
		<path fill="#FAC612" d="M48.874,266.453l-1.025,5.335c-0.615,3.2,1.481,6.297,4.683,6.912l0.118,0.024
			c3.203,0.614,6.298-1.482,6.913-4.684l1.026-5.334L48.874,266.453z"/>
		<path fill="#EC693A" d="M60.587,268.704l1.025-5.335c0.615-3.201-1.481-6.296-4.683-6.912l-0.118-0.023
			c-3.202-0.615-6.296,1.482-6.912,4.682l-1.026,5.338L60.587,268.704z"/>
		<g>
			<path fill="#FFFFFF" d="M51.784,262.757c-0.454-0.088-0.75-0.526-0.663-0.979c0.52-2.707,3.146-4.485,5.852-3.965
				c0.453,0.086,0.749,0.525,0.662,0.978c-0.087,0.453-0.526,0.751-0.979,0.664c-1.802-0.347-3.548,0.836-3.895,2.637
				C52.676,262.546,52.237,262.843,51.784,262.757z"/>
		</g>
	</g>
	<g>
		<path fill="#FAC612" d="M80.559,276.063l-3.047-4.497c-1.829-2.699-5.5-3.406-8.199-1.578l-0.099,0.067
			c-2.699,1.83-3.406,5.502-1.577,8.2l3.047,4.497L80.559,276.063z"/>
		<path fill="#EC693A" d="M70.685,282.752l3.047,4.499c1.828,2.698,5.5,3.405,8.201,1.575l0.099-0.065
			c2.699-1.83,3.404-5.501,1.576-8.201l-3.049-4.498L70.685,282.752z"/>
		<g>
			<path fill="#FFFFFF" d="M81.115,280.734c0.384-0.259,0.903-0.159,1.162,0.222c1.545,2.282,0.946,5.396-1.335,6.941
				c-0.382,0.26-0.901,0.158-1.159-0.223c-0.259-0.382-0.16-0.903,0.222-1.16c1.518-1.029,1.917-3.101,0.888-4.621
				C80.633,281.512,80.733,280.994,81.115,280.734z"/>
		</g>
	</g>
	<g>
		<path fill="#FAC612" d="M79.927,265.497l2.763,4.153c1.658,2.492,5.024,3.17,7.518,1.514l0.092-0.062
			c2.494-1.658,3.17-5.025,1.513-7.52l-2.764-4.156L79.927,265.497z"/>
		<path fill="#EC693A" d="M89.049,259.429l-2.765-4.155c-1.658-2.493-5.024-3.171-7.518-1.511l-0.092,0.058
			c-2.494,1.661-3.17,5.025-1.512,7.521l2.765,4.157L89.049,259.429z"/>
		<g>
			<path fill="#FFFFFF" d="M79.452,261.2c-0.354,0.235-0.83,0.14-1.065-0.216c-1.402-2.105-0.827-4.961,1.28-6.362
				c0.352-0.235,0.829-0.139,1.063,0.214c0.234,0.354,0.14,0.83-0.213,1.064c-1.402,0.934-1.786,2.831-0.853,4.236
				C79.902,260.488,79.805,260.966,79.452,261.2z"/>
		</g>
	</g>
	<g>
		
			<rect x="152.874" y="267.607" transform="matrix(-0.1192 -0.9929 0.9929 -0.1192 -80.8158 470.4507)" fill="#FC002A" width="30.792" height="6.932"/>
		<path fill="#F7F7F7" d="M238.295,267.441l-1.134-9.438c-0.496-4.138-4.146-7.16-8.304-6.88l-58.978,4.237l3.668,30.572
			l58.308-9.843C235.961,275.379,238.792,271.578,238.295,267.441z"/>
		<polygon fill="#FF0037" points="251.119,265.173 250.158,257.172 237.056,257.129 238.399,268.316 		"/>
	</g>
	<g>
		<path fill="#FAC612" d="M127.433,286.321l-3.629-0.206c-2.743-2.623-4.808-5.17-5.928-7.286c-2.898-0.498-6.247-0.782-9.814-0.782
			c-11.01,0-19.935,2.707-19.935,6.047l0,0l0,0v9.376c0,3.34,8.925,6.047,19.935,6.047c11.008,0,19.934-2.707,19.934-6.047v-3.718
			L127.433,286.321z"/>
		<path fill="#5BC1DA" d="M142.521,273.837c-8.864-6.529-17.655-9.642-19.635-6.954l-5.562,7.551
			c-1.98,2.688,3.602,10.161,12.466,16.688c8.865,6.529,17.655,9.643,19.635,6.953l5.562-7.55
			C156.968,287.835,151.387,280.364,142.521,273.837z"/>
		<path fill="none" stroke="#1D1D1B" stroke-width="40" stroke-linecap="round" stroke-linejoin="round" stroke-miterlimit="10" d="
			M100.224,289.399"/>
		<path fill="none" stroke="#1D1D1B" stroke-width="40" stroke-linecap="round" stroke-linejoin="round" stroke-miterlimit="10" d="
			M150.585,281.344"/>
		<path fill="none" stroke="#1D1D1B" stroke-width="40" stroke-linecap="round" stroke-linejoin="round" stroke-miterlimit="10" d="
			M127.21,276.174"/>
		<g>
			<path fill="#0097A0" d="M152.604,283.331l-23.742-5.253c1.856,1.823,4.048,3.694,6.492,5.494
				c8.865,6.527,17.657,9.64,19.635,6.953C156.01,289.138,155.02,286.479,152.604,283.331z"/>
			<path fill="#0097A0" d="M149.182,279.495c-1.89-1.875-4.142-3.804-6.659-5.658c-8.865-6.529-17.656-9.642-19.636-6.954
				c-1.039,1.41,0.003,4.137,2.506,7.349L149.182,279.495z"/>
		</g>
		<g>
			<path fill="#EC693A" d="M118.108,279.252l-15.888,10.621c1.847,0.172,3.808,0.264,5.841,0.264c7.177,0,13.468-1.15,16.978-2.876
				C121.87,284.413,119.45,281.597,118.108,279.252z"/>
			<path fill="#EC693A" d="M114.081,278.328c-1.9-0.183-3.921-0.281-6.019-0.281c-11.01,0-19.935,2.707-19.935,6.047
				c0,2.19,3.844,4.109,9.599,5.169L114.081,278.328z"/>
		</g>
	</g>
	<g>
		<path fill="#8E8E8E" d="M143.854,296.161l5.735-28.32c0.511-2.526,2.974-4.158,5.501-3.648l43.933,8.895
			c2.524,0.514,4.157,2.975,3.647,5.501l-5.735,28.321c-0.513,2.526-2.973,4.16-5.499,3.647l-43.934-8.896
			C144.977,301.152,143.344,298.688,143.854,296.161z"/>
		<g>
			<g>
				<circle fill="#FFFFFF" cx="190.084" cy="282.951" r="4.99"/>
				<circle fill="#FFFFFF" cx="187.036" cy="297.996" r="4.989"/>
			</g>
			<g>
				<circle fill="#FFFFFF" cx="174.786" cy="279.854" r="4.988"/>
				<circle fill="#FFFFFF" cx="171.738" cy="294.898" r="4.988"/>
			</g>
			<g>
				<circle fill="#FFFFFF" cx="159.488" cy="276.756" r="4.99"/>
				<circle fill="#FFFFFF" cx="156.442" cy="291.801" r="4.99"/>
			</g>
		</g>
	</g>
	<g>
		<g>
			<path fill="#0097A0" d="M256.253,276.902c-0.161-0.563,0.163-1.146,0.723-1.306l11.417-3.278c0.563-0.16,1.146,0.162,1.307,0.724
				c0.16,0.56-0.163,1.143-0.724,1.304l-11.418,3.277C256.997,277.784,256.413,277.461,256.253,276.902z"/>
		</g>
		
			<rect x="198.52" y="286.395" transform="matrix(-0.2757 -0.9612 0.9612 -0.2757 -24.2986 566.9324)" fill="#0097A0" width="5.841" height="12.452"/>
		
			<rect x="227.058" y="257.883" transform="matrix(-0.2758 -0.9612 0.9612 -0.2758 23.6347 585.3433)" fill="#5BC1DA" width="10.511" height="51.772"/>
		<g>
			<path fill="#0097A0" d="M209.215,300.909l-5.572-19.409c-0.161-0.562,0.165-1.146,0.724-1.306
				c0.559-0.159,1.144,0.163,1.304,0.723l5.573,19.411c0.16,0.561-0.163,1.144-0.723,1.304
				C209.959,301.791,209.375,301.47,209.215,300.909z"/>
		</g>
		<g>
			<path fill="#0097A0" d="M196.175,300.615L196.175,300.615l-3.429-11.948c-0.161-0.562,0.163-1.146,0.722-1.306
				c0.562-0.161,1.146,0.164,1.306,0.723l3.43,11.948c0.162,0.562-0.163,1.146-0.723,1.306
				C196.922,301.497,196.336,301.176,196.175,300.615z"/>
		</g>
		<g>
			<path fill="#FFFFFF" d="M244.174,283.542l0.608,2.12l2.028-0.583l-0.607-2.119c-0.161-0.558-0.746-0.883-1.307-0.723
				C244.338,282.399,244.015,282.984,244.174,283.542z"/>
			<path fill="#FFFFFF" d="M238.205,285.256l0.609,2.12l2.027-0.584l-0.607-2.118c-0.162-0.559-0.745-0.884-1.305-0.723
				C238.369,284.112,238.045,284.697,238.205,285.256z"/>
			<path fill="#FFFFFF" d="M216.967,293.646l-1.191-4.145c-0.16-0.561-0.745-0.885-1.306-0.723
				c-0.561,0.159-0.882,0.745-0.721,1.306l1.189,4.144L216.967,293.646z"/>
			<path fill="#FFFFFF" d="M226.991,287.378c-0.562,0.161-0.884,0.747-0.723,1.305l0.608,2.119l2.027-0.582l-0.607-2.119
				C228.137,287.541,227.551,287.218,226.991,287.378z"/>
			<path fill="#FFFFFF" d="M250.283,278.496c-0.56,0.161-0.882,0.746-0.722,1.307l1.19,4.144l2.03-0.581l-1.192-4.146
				C251.428,278.659,250.844,278.335,250.283,278.496z"/>
			<path fill="#FFFFFF" d="M232.378,283.636c-0.562,0.161-0.885,0.746-0.723,1.306l1.189,4.146l2.028-0.581l-1.189-4.146
				C233.522,283.8,232.937,283.476,232.378,283.636z"/>
			<path fill="#FFFFFF" d="M220.3,290.396l0.607,2.117l2.029-0.581l-0.609-2.118c-0.16-0.56-0.746-0.884-1.305-0.723
				C220.463,289.253,220.139,289.838,220.3,290.396z"/>
		</g>
	</g>
	<g>
		<path fill="#EC693A" d="M243.052,292.732c0.03-0.275,0.048-0.556,0.048-0.839c0-3.991-3.235-7.227-7.228-7.227
			c-3.99,0-7.226,3.235-7.226,7.227s3.235,7.228,7.226,7.228c0.284,0,0.564-0.018,0.839-0.05
			C237.095,295.75,239.73,293.116,243.052,292.732z"/>
		<g>
			<path fill="#FFFFFF" d="M231.784,296.849c-0.221,0-0.444-0.085-0.613-0.255c-0.338-0.338-0.338-0.89,0-1.227l8.175-8.175
				c0.34-0.34,0.889-0.34,1.229,0c0.336,0.337,0.336,0.887,0,1.227l-8.177,8.175C232.229,296.764,232.007,296.849,231.784,296.849z"
				/>
		</g>
		<circle fill="#5BC1DA" cx="243.889" cy="299.909" r="7.227"/>
		<g>
			<path fill="#FFFFFF" d="M239.8,304.863c-0.222,0-0.443-0.084-0.613-0.255c-0.339-0.338-0.339-0.888,0-1.227l8.176-8.174
				c0.337-0.339,0.888-0.339,1.227,0c0.338,0.338,0.338,0.887,0,1.226l-8.176,8.175C240.243,304.779,240.021,304.863,239.8,304.863z
				"/>
		</g>
	</g>
</g>
</svg>
