<?xml version="1.0" encoding="utf-8"?>
<!-- Generator: Adobe Illustrator 16.0.0, SVG Export Plug-In . SVG Version: 6.00 Build 0)  -->
<!DOCTYPE svg PUBLIC "-//W3C//DTD SVG 1.1//EN" "http://www.w3.org/Graphics/SVG/1.1/DTD/svg11.dtd">
<svg version="1.1" id="katman_1" xmlns="http://www.w3.org/2000/svg" xmlns:xlink="http://www.w3.org/1999/xlink" x="0px" y="0px"
	 width="318px" height="340px" viewBox="0 0 318 340" enable-background="new 0 0 318 340" xml:space="preserve">
<rect fill="#00AEA8" width="318" height="340"/>
<rect y="159.579" fill="#009245" width="318" height="180.421"/>
<path opacity="0.39" fill="#FFFFFF" d="M105.406,89.672c-0.042,0-0.083,0.005-0.125,0.006c-0.923-7.531-7.332-13.369-15.112-13.369
	c-0.939,0-1.853,0.098-2.745,0.26c0.099-0.699,0.168-1.408,0.168-2.135c0-8.416-6.822-15.237-15.239-15.237
	c-8.415,0-15.236,6.821-15.236,15.237c0,0.08,0.01,0.156,0.01,0.236c-0.843-0.145-1.705-0.236-2.59-0.236
	c-8.416,0-15.237,6.822-15.237,15.238c-4.661,0-8.439,3.777-8.439,8.439c0,4.661,3.778,8.439,8.439,8.439c3.021,0,63.645,0,66.107,0
	c4.661,0,8.44-3.778,8.44-8.439C113.846,93.449,110.067,89.672,105.406,89.672z"/>
<g>
	<polygon fill="#F18719" points="235.611,19.218 238.192,26.529 242.034,19.796 243.268,27.45 248.252,21.512 248.099,29.263 
		254.063,24.31 252.528,31.91 259.281,28.101 256.414,35.304 263.737,32.762 259.63,39.337 267.291,38.146 262.075,43.881 
		269.825,44.076 263.669,48.789 271.261,50.363 264.362,53.902 271.55,56.807 264.132,59.056 270.685,63.198 262.983,64.086 
		268.692,69.332 260.956,68.831 265.636,75.011 258.112,73.137 261.615,80.053 254.548,76.867 256.757,84.297 250.372,79.898 
		251.22,87.605 245.724,82.137 245.183,89.872 240.751,83.51 238.837,91.023 235.611,83.972 232.388,91.023 230.472,83.51 
		226.04,89.872 225.5,82.137 220.004,87.605 220.851,79.898 214.467,84.297 216.676,76.867 209.608,80.053 213.111,73.137 
		205.589,75.011 210.268,68.831 202.531,69.332 208.24,64.086 200.54,63.198 207.092,59.056 199.674,56.807 206.861,53.902 
		199.962,50.363 207.554,48.789 201.397,44.076 209.147,43.881 203.933,38.146 211.593,39.337 207.485,32.762 214.81,35.304 
		211.942,28.101 218.695,31.91 217.16,24.31 223.124,29.263 222.972,21.512 227.956,27.45 229.188,19.796 233.031,26.529 	"/>
	<circle fill="#FBB712" cx="235.612" cy="55.121" r="26.372"/>
</g>
<path fill="#FFFFFF" d="M225.066,63.004c-0.023,0-0.047,0.004-0.069,0.004c-0.518-4.219-4.107-7.489-8.467-7.489
	c-0.526,0-1.038,0.054-1.538,0.146c0.056-0.392,0.094-0.789,0.094-1.196c0-4.714-3.821-8.536-8.536-8.536s-8.536,3.822-8.536,8.536
	c0,0.045,0.006,0.088,0.006,0.132c-0.472-0.08-0.955-0.132-1.451-0.132c-4.715,0-8.536,3.821-8.536,8.536
	c-2.611,0-4.728,2.117-4.728,4.729s2.116,4.728,4.728,4.728c1.693,0,35.654,0,37.034,0c2.611,0,4.729-2.116,4.729-4.728
	S227.678,63.004,225.066,63.004z"/>
<path fill="#FFFFFF" d="M287.534,105.415c-0.031,0-0.063,0.004-0.092,0.004c-0.684-5.57-5.423-9.888-11.179-9.888
	c-0.694,0-1.37,0.071-2.03,0.192c0.073-0.518,0.124-1.042,0.124-1.58c0-6.224-5.046-11.27-11.271-11.27s-11.27,5.046-11.27,11.27
	c0,0.06,0.008,0.116,0.008,0.176c-0.623-0.107-1.261-0.176-1.916-0.176c-6.225,0-11.271,5.046-11.271,11.271
	c-3.447,0-6.241,2.794-6.241,6.242c0,3.447,2.794,6.241,6.241,6.241c2.236,0,47.073,0,48.896,0c3.447,0,6.243-2.794,6.243-6.241
	C293.777,108.208,290.981,105.415,287.534,105.415z"/>
<g>
	<g>
		<path fill="#D97A25" d="M106.141,137.349c-0.902,0.901-2.299,0.968-3.12,0.146L27.963,62.439
			c-0.821-0.821-0.755-2.219,0.147-3.121c0.903-0.902,2.3-0.969,3.122-0.148l75.057,75.057
			C107.11,135.048,107.043,136.446,106.141,137.349L106.141,137.349z"/>
	</g>
	<g>
		<g>
			<path fill="#CDCCCC" d="M151.445,161.401c-1.354,1.354-3.547,1.354-4.901,0l-17.213-17.213c-4.507-4.508-11.842-4.508-16.35,0
				c-4.507,4.508-4.506,11.842,0.001,16.349l17.213,17.212c1.354,1.355,1.353,3.549,0,4.902c-1.354,1.354-3.548,1.355-4.902,0
				l-17.213-17.212c-7.21-7.211-7.211-18.943-0.001-26.153c7.211-7.211,18.944-7.211,26.155,0l17.213,17.213
				C152.8,157.853,152.798,160.047,151.445,161.401L151.445,161.401z"/>
		</g>
	</g>
	<g>
		<g>
			<g>
				<path fill="#CDCCCC" d="M137.275,175.571c-1.354,1.354-3.548,1.354-4.902,0l-26.649-26.649
					c-1.354-1.354-1.354-3.548,0.001-4.902c1.353-1.353,3.547-1.354,4.901,0l26.649,26.649
					C138.629,172.022,138.628,174.218,137.275,175.571L137.275,175.571z"/>
			</g>
		</g>
		<g>
			<g>
				<path fill="#CDCCCC" d="M144.363,168.481c-1.353,1.354-3.547,1.355-4.901,0l-26.649-26.649c-1.354-1.354-1.353-3.548,0-4.901
					c1.354-1.354,3.548-1.354,4.902,0l26.649,26.648C145.718,164.934,145.717,167.128,144.363,168.481L144.363,168.481z"/>
			</g>
		</g>
	</g>
	<g>
		<g>
			<path fill="#CDCCCC" d="M112.98,144.188c-1.353,1.354-3.548,1.354-4.902,0l-8.777-8.777c-1.355-1.354-1.354-3.549,0-4.901
				c1.354-1.354,3.548-1.355,4.903,0l8.776,8.776C114.335,140.64,114.335,142.834,112.98,144.188L112.98,144.188z"/>
		</g>
	</g>
</g>
<g>
	<path fill="#F3D13C" d="M206.626,187.452c-7.387-13.872-10.705-27.058-22.479-37.488c-3.664-3.245-6.453-6.939-10.557-8.583
		c-4.783-1.913-11.148-0.987-16.453-1c-11.031-0.029-25.286,6.245-33.829,13.502c-16.094,13.67-23.617,38.722-27.809,58.468
		c-1.028,4.838-1.581,7.46,0.967,11.637c4.089,6.7,10.835,11.777,17.246,16.128c12.13,8.231,25.888,10.175,40.014,12.662
		c10.771,1.897,22.297,4.035,33.354,2.849c9.631-1.032,15.805-6.28,24.605-9.582l7.307-11.24
		C218.993,217.219,214.897,202.986,206.626,187.452z"/>
	<g>
		<g>
			<path fill="#8D4747" d="M96.024,229.791c-0.087,0-0.174-0.004-0.264-0.011l-56.727-4.87c-1.676-0.145-2.919-1.619-2.774-3.297
				c0.144-1.676,1.597-2.913,3.297-2.774l56.726,4.87c1.677,0.144,2.919,1.62,2.775,3.296
				C98.92,228.594,97.589,229.791,96.024,229.791L96.024,229.791z"/>
		</g>
		<g>
			<path fill="#D97A25" d="M156.431,291.725h-19.2l-18.447-51.076h43.481L156.431,291.725L156.431,291.725z M139.37,288.678h14.342
				l5.139-44.982h-35.727L139.37,288.678L139.37,288.678z"/>
		</g>
		<g>
			<polygon fill="#D97A25" points="87.374,213.892 99.057,270.452 210.505,270.452 222.858,229.856 			"/>
		</g>
		<g>
			<polygon fill="#CA661E" points="177.538,224.516 175.263,224.248 175.263,270.451 177.538,270.451 			"/>
			<polygon fill="#CA661E" points="154.509,221.802 152.233,221.534 152.233,270.451 154.509,270.451 			"/>
			<polygon fill="#CA661E" points="108.451,216.375 106.175,216.107 106.175,270.451 108.451,270.451 			"/>
			<polygon fill="#CA661E" points="131.48,219.089 129.205,218.821 129.205,270.451 131.48,270.451 			"/>
			<polygon fill="#CA661E" points="198.292,226.962 198.292,270.451 200.567,270.451 200.567,227.229 			"/>
		</g>
		<g>
			<path fill="#8D4747" d="M210.505,272.99H99.057c-1.402,0-2.54-1.137-2.54-2.538c0-1.403,1.138-2.539,2.54-2.539h111.448
				c1.402,0,2.539,1.136,2.539,2.539C213.044,271.854,211.907,272.99,210.505,272.99L210.505,272.99z"/>
		</g>
		<g>
			<path fill="#8D4747" d="M222.864,233.918c-0.16,0-0.318-0.009-0.48-0.027L86.9,217.926c-2.229-0.263-3.822-2.281-3.561-4.509
				c0.264-2.229,2.275-3.824,4.51-3.56l135.484,15.964c2.229,0.263,3.822,2.282,3.561,4.509
				C226.649,232.397,224.894,233.918,222.864,233.918L222.864,233.918z"/>
		</g>
		<g>
			<circle fill="#3C424E" cx="245.969" cy="270.451" r="27.513"/>
		</g>
		<g>
			<circle fill="#B4B4B4" cx="245.97" cy="270.452" r="18.037"/>
		</g>
		<g>
			<circle fill="#9A9999" cx="245.97" cy="270.452" r="10.357"/>
		</g>
		<g>
			<path fill="#8D4747" d="M245.972,274.516c-0.332,0-0.67-0.041-1.008-0.128l-36.609-9.344c-2.174-0.556-3.486-2.767-2.932-4.94
				c0.555-2.175,2.764-3.489,4.941-2.933l36.609,9.345c2.174,0.556,3.486,2.767,2.932,4.94
				C249.437,273.293,247.784,274.516,245.972,274.516L245.972,274.516z"/>
		</g>
	</g>
	<line fill="none" stroke="#CCAF33" stroke-width="2" stroke-linecap="round" x1="95.66" y1="198.067" x2="107.313" y2="205.33"/>
	
		<line fill="none" stroke="#CCAF33" stroke-width="2" stroke-linecap="round" x1="180.864" y1="154.467" x2="192.888" y2="147.838"/>
	
		<line fill="none" stroke="#CCAF33" stroke-width="2" stroke-linecap="round" x1="150.803" y1="170.534" x2="162.827" y2="163.905"/>
	
		<line fill="none" stroke="#CCAF33" stroke-width="2" stroke-linecap="round" x1="196.878" y1="180.072" x2="209.913" y2="184.389"/>
	
		<line fill="none" stroke="#CCAF33" stroke-width="2" stroke-linecap="round" x1="211.073" y1="213.949" x2="224.108" y2="218.266"/>
	<line fill="none" stroke="#CCAF33" stroke-width="2" stroke-linecap="round" x1="119.758" y1="148.003" x2="124.38" y2="160.932"/>
	
		<line fill="none" stroke="#CCAF33" stroke-width="2" stroke-linecap="round" x1="158.774" y1="189.517" x2="166.442" y2="191.969"/>
	
		<line fill="none" stroke="#CCAF33" stroke-width="2" stroke-linecap="round" x1="102.179" y1="180.541" x2="110.173" y2="179.603"/>
	<line fill="none" stroke="#CCAF33" stroke-width="2" stroke-linecap="round" x1="194.296" y1="168.158" x2="202.29" y2="167.22"/>
	<line fill="none" stroke="#CCAF33" stroke-width="2" stroke-linecap="round" x1="142.809" y1="205.34" x2="150.803" y2="204.401"/>
	
		<line fill="none" stroke="#CCAF33" stroke-width="2" stroke-linecap="round" x1="194.856" y1="197.588" x2="198.284" y2="204.871"/>
	
		<line fill="none" stroke="#CCAF33" stroke-width="2" stroke-linecap="round" x1="171.425" y1="183.443" x2="179.101" y2="181.017"/>
	<line fill="none" stroke="#CCAF33" stroke-width="2" stroke-linecap="round" x1="116.707" y1="194.396" x2="124.38" y2="191.969"/>
	
		<line fill="none" stroke="#CCAF33" stroke-width="2" stroke-linecap="round" x1="172.563" y1="211.042" x2="180.237" y2="208.615"/>
	
		<line fill="none" stroke="#CCAF33" stroke-width="2" stroke-linecap="round" x1="209.913" y1="202.442" x2="217.587" y2="200.016"/>
</g>
<g>
	<g>
		<path fill="#D97A25" d="M196.933,262.419c-1.276,0-2.311-1.034-2.311-2.311V143.415c0-1.275,1.034-2.312,2.311-2.312
			s2.312,1.034,2.312,2.311v116.694C199.244,261.384,198.209,262.419,196.933,262.419L196.933,262.419z"/>
	</g>
	<g>
		<path fill="#CDCCCC" d="M228.218,301.346c-1.915,0-3.467-1.552-3.467-3.466v-13.713c0-4.961-4.036-8.997-8.997-8.997
			l-37.644,0.001c-4.961,0-8.996,4.036-8.996,8.996v13.713c0,1.914-1.553,3.466-3.467,3.466c-1.915,0-3.467-1.552-3.467-3.466
			v-13.713c0-8.783,7.146-15.93,15.93-15.93h37.644c8.784,0,15.93,7.146,15.93,15.93v13.713
			C231.684,299.794,230.131,301.346,228.218,301.346L228.218,301.346z"/>
	</g>
	<g>
		<g>
			<path fill="#CDCCCC" d="M174.608,301.346c-1.915,0-3.467-1.552-3.467-3.466v-24.898c0-1.915,1.552-3.467,3.467-3.467
				c1.913,0,3.466,1.552,3.466,3.467v24.898C178.074,299.794,176.521,301.346,174.608,301.346L174.608,301.346z"/>
		</g>
		<g>
			<path fill="#CDCCCC" d="M183.537,301.346c-1.913,0-3.466-1.552-3.466-3.466v-24.898c0-1.915,1.553-3.467,3.466-3.467
				c1.915,0,3.467,1.552,3.467,3.467v24.898C187.004,299.794,185.452,301.346,183.537,301.346L183.537,301.346z"/>
		</g>
		<g>
			<path fill="#CDCCCC" d="M192.468,301.346c-1.914,0-3.467-1.552-3.467-3.466v-24.898c0-1.915,1.553-3.467,3.467-3.467
				c1.915,0,3.467,1.551,3.467,3.467v24.898C195.935,299.794,194.383,301.346,192.468,301.346L192.468,301.346z"/>
		</g>
		<g>
			<path fill="#CDCCCC" d="M201.398,301.346c-1.915,0-3.467-1.552-3.467-3.466v-24.898c0-1.916,1.552-3.467,3.467-3.467
				c1.913,0,3.466,1.551,3.466,3.467v24.898C204.864,299.794,203.312,301.346,201.398,301.346L201.398,301.346z"/>
		</g>
		<g>
			<path fill="#CDCCCC" d="M210.327,301.346c-1.913,0-3.466-1.552-3.466-3.466v-24.898c0-1.916,1.553-3.467,3.466-3.467
				c1.915,0,3.467,1.551,3.467,3.467v24.898C213.794,299.794,212.242,301.346,210.327,301.346L210.327,301.346z"/>
		</g>
		<g>
			<path fill="#CDCCCC" d="M219.258,301.346c-1.914,0-3.467-1.552-3.467-3.466v-24.898c0-1.916,1.553-3.467,3.467-3.467
				c1.915,0,3.467,1.551,3.467,3.467v24.898C222.725,299.794,221.173,301.346,219.258,301.346L219.258,301.346z"/>
		</g>
	</g>
	<g>
		<path fill="#CDCCCC" d="M196.933,275.17c-1.913,0.001-3.466-1.551-3.466-3.466v-10.576c0-1.914,1.553-3.466,3.466-3.467
			c1.915,0,3.467,1.552,3.467,3.467v10.576C200.399,273.618,198.848,275.17,196.933,275.17L196.933,275.17z"/>
	</g>
</g>
<g>
	<g>
		<path fill="#D97A25" d="M138.277,264.324c-1.274,0-2.311-1.035-2.311-2.313V145.32c0-1.277,1.036-2.312,2.311-2.312
			c1.277,0,2.312,1.034,2.312,2.312v116.691C140.589,263.289,139.555,264.324,138.277,264.324L138.277,264.324z"/>
	</g>
	<g>
		<g>
			<path fill="#CDCCCC" d="M138.277,268.986c-1.913,0-3.465-1.551-3.465-3.467v-10.576c0-1.914,1.552-3.465,3.465-3.465
				c1.916,0,3.467,1.551,3.467,3.465v10.576C141.744,267.436,140.193,268.986,138.277,268.986L138.277,268.986z"/>
		</g>
		<path fill="#B4B4B4" d="M120.743,300.566v-22.799c0-9.686,7.851-17.535,17.534-17.535c9.685,0,17.536,7.85,17.536,17.535v22.799
			H120.743z"/>
		<path fill="#CDCCCC" d="M138.277,266.477c-7.795,0-14.114,6.32-14.114,14.117v19.973h28.229v-19.973
			C152.392,272.797,146.073,266.477,138.277,266.477z"/>
	</g>
</g>
</svg>
